<?xml version='1.0' encoding='UTF-8' standalone='no'?>
<svg width="147.997mm" version="1.2" baseProfile="tiny" xmlns="http://www.w3.org/2000/svg" xmlns:xlink="http://www.w3.org/1999/xlink" height="104.987mm" viewBox="0 0 1748 1240">
 <defs/>
 <g fill="none" fill-rule="evenodd" stroke-width="1" stroke="black" stroke-linecap="square" stroke-linejoin="bevel">
  <g font-style="normal" font-size="41.6667" transform="matrix(1,0,0,1,0,0)" font-weight="400" fill="none" font-family="Sans" stroke-width="1" stroke-opacity="1" stroke="#000000" stroke-linecap="square" stroke-linejoin="bevel"/>
  <g font-style="normal" font-size="41.6667" transform="matrix(1,0,0,1,0,0)" font-weight="400" fill="none" font-family="Sans" stroke-width="1" stroke-opacity="1" stroke="#000000" stroke-linecap="square" stroke-linejoin="bevel"/>
  <g font-style="normal" font-size="41.6667" transform="matrix(11.8095,0,0,11.8095,0,0)" font-weight="400" fill="none" font-family="Sans" stroke-width="1" stroke-opacity="1" stroke="#000000" stroke-linecap="square" stroke-linejoin="bevel"/>
  <g font-style="normal" font-size="41.6667" transform="matrix(0.999873,0,0,0.999873,0,0)" font-weight="400" fill="none" font-family="Sans" stroke-width="1" stroke-opacity="1" stroke="#000000" stroke-linecap="square" stroke-linejoin="bevel"/>
  <g font-style="normal" fill-opacity="1" font-size="41.6667" transform="matrix(0.999873,0,0,0.999873,0,0)" font-weight="400" fill="#ffffff" font-family="Sans" stroke="none">
   <path d="M-2,-2 L1751,-2 L1751,1243 L-2,1243 L-2,-2" fill-rule="evenodd" vector-effect="none"/>
  </g>
  <g font-style="normal" font-size="41.6667" transform="matrix(0.999873,0,0,0.999873,0,0)" font-weight="400" fill="none" font-family="Sans" stroke-width="1" stroke-opacity="1" stroke="#000000" stroke-linecap="square" stroke-linejoin="bevel"/>
  <g font-style="normal" font-size="41.6667" transform="matrix(11.8095,0,0,11.8095,0,0)" font-weight="400" fill="none" font-family="Sans" stroke-width="1" stroke-opacity="1" stroke="#000000" stroke-linecap="square" stroke-linejoin="bevel"/>
  <g font-style="normal" font-size="41.6667" transform="matrix(11.8095,0,0,11.8095,0,0)" font-weight="400" fill="none" font-family="Sans" stroke-width="1" stroke-opacity="1" stroke="#000000" stroke-linecap="square" stroke-linejoin="bevel"/>
  <g font-style="normal" font-size="41.6667" transform="matrix(11.8095,0,0,11.8095,0,0)" font-weight="400" fill="none" font-family="Sans" stroke-width="1" stroke-opacity="1" stroke="#000000" stroke-linecap="square" stroke-linejoin="bevel"/>
  <g font-style="normal" font-size="41.6667" transform="matrix(11.8095,0,0,11.8095,0,0)" font-weight="400" fill="none" font-family="Sans" stroke-width="1" stroke-opacity="1" stroke="#000000" stroke-linecap="square" stroke-linejoin="bevel"/>
  <g font-style="normal" font-size="41.6667" transform="matrix(11.8095,0,0,11.8095,0,0)" font-weight="400" fill="none" font-family="Sans" stroke-width="1" stroke-opacity="1" stroke="#000000" stroke-linecap="square" stroke-linejoin="bevel"/>
  <g font-style="normal" fill-opacity="1" font-size="41.6667" transform="matrix(11.8095,0,0,11.8095,0,0)" font-weight="400" fill="#ffffff" font-family="Sans" stroke="none">
   <rect width="148" height="105" y="0" x="0"/>
  </g>
  <g font-style="normal" font-size="41.6667" transform="matrix(11.8095,0,0,11.8095,0,0)" font-weight="400" fill="none" font-family="Sans" stroke-width="1" stroke-opacity="1" stroke="#000000" stroke-linecap="square" stroke-linejoin="bevel"/>
  <g font-style="normal" font-size="41.6667" transform="matrix(11.8095,0,0,11.8095,0,0)" font-weight="400" fill="none" font-family="Sans" stroke-width="1" stroke-opacity="1" stroke="#000000" stroke-linecap="square" stroke-linejoin="bevel"/>
  <g font-style="normal" fill-opacity="0" font-size="41.6667" transform="matrix(0.999873,0,0,0.999873,0,0)" font-weight="400" fill="#000000" font-family="Sans" stroke="none">
   <rect width="1748" height="1240" y="0" x="0"/>
  </g>
  <g font-style="normal" fill-opacity="1" font-size="41.6667" transform="matrix(0.999873,0,0,0.999873,0,0)" font-weight="400" fill="#96ade3" font-family="Sans" stroke="none">
   <path d="M1718.16,930.119 L1675.51,912.347 L1469.36,841.259 L1504.9,803.939 L1588.43,725.742 L1625.75,700.862 L1679.06,695.53 L1686.17,736.406 L1718.16,930.119" fill-rule="evenodd" vector-effect="none"/>
   <path d="M1718.16,930.119 L1675.51,912.347 L1469.36,841.259 L1462.25,784.389 L1611.53,675.981 L1661.29,675.981 L1679.06,695.53 L1686.17,736.406 L1718.16,930.119" fill-rule="evenodd" vector-effect="none"/>
   <path d="M1718.16,930.119 L1675.51,912.347 L1504.9,803.939 L1583.1,704.416 L1661.29,675.981 L1679.06,695.53 L1686.17,736.406 L1718.16,930.119" fill-rule="evenodd" vector-effect="none"/>
   <path d="M1718.16,930.119 L1675.51,912.347 L1654.18,883.912 L1600.87,780.835 L1629.3,748.846 L1686.17,736.406 L1718.16,930.119" fill-rule="evenodd" vector-effect="none"/>
   <path d="M1718.16,930.119 L1675.51,912.347 L1469.36,841.259 L1504.9,803.939 L1588.43,725.742 L1625.75,700.862 L1679.06,695.53 L1686.17,736.406 L1718.16,930.119" fill-rule="evenodd" vector-effect="none"/>
   <path d="M1673.73,859.031 L1666.62,860.808 L1469.36,841.259 L1462.25,784.389 L1611.53,675.981 L1661.29,675.981 L1679.06,695.53 L1686.17,736.406 L1687.95,825.265 L1673.73,859.031" fill-rule="evenodd" vector-effect="none"/>
   <path d="M1673.73,859.031 L1666.62,860.808 L1469.36,841.259 L1462.25,784.389 L1496.01,723.965 L1536.89,679.536 L1611.53,675.981 L1661.29,675.981 L1679.06,695.53 L1686.17,736.406 L1687.95,825.265 L1673.73,859.031" fill-rule="evenodd" vector-effect="none"/>
   <path d="M1687.95,825.265 L1673.73,859.031 L1666.62,860.808 L1504.9,803.939 L1496.01,723.965 L1536.89,679.536 L1611.53,675.981 L1661.29,675.981 L1679.06,695.53 L1686.17,736.406 L1687.95,825.265" fill-rule="evenodd" vector-effect="none"/>
   <path d="M1673.73,859.031 L1666.62,860.808 L1469.36,841.259 L1522.67,750.623 L1611.53,675.981 L1661.29,675.981 L1679.06,695.53 L1686.17,736.406 L1687.95,825.265 L1673.73,859.031" fill-rule="evenodd" vector-effect="none"/>
   <path d="M1673.73,859.031 L1666.62,860.808 L1469.36,841.259 L1462.25,784.389 L1611.53,675.981 L1661.29,675.981 L1679.06,695.53 L1686.17,736.406 L1687.95,825.265 L1673.73,859.031" fill-rule="evenodd" vector-effect="none"/>
   <path d="M1469.36,841.259 L1462.25,784.389 L1462.25,620.889 L1506.68,551.578 L1618.64,535.584 L1629.3,562.242 L1679.06,695.53 L1686.17,736.406 L1679.06,770.172 L1666.62,811.047 L1469.36,841.259" fill-rule="evenodd" vector-effect="none"/>
   <path d="M1469.36,841.259 L1462.25,784.389 L1462.25,620.889 L1570.66,556.91 L1618.64,535.584 L1629.3,562.242 L1679.06,695.53 L1686.17,736.406 L1679.06,770.172 L1666.62,811.047 L1469.36,841.259" fill-rule="evenodd" vector-effect="none"/>
   <path d="M1666.62,811.047 L1469.36,841.259 L1462.25,784.389 L1496.01,723.965 L1593.76,599.562 L1679.06,695.53 L1686.17,736.406 L1679.06,770.172 L1666.62,811.047" fill-rule="evenodd" vector-effect="none"/>
   <path d="M1666.62,811.047 L1469.36,841.259 L1462.25,784.389 L1462.25,620.889 L1515.56,596.008 L1584.87,580.013 L1679.06,695.53 L1686.17,736.406 L1679.06,770.172 L1666.62,811.047" fill-rule="evenodd" vector-effect="none"/>
   <path d="M1469.36,841.259 L1462.25,784.389 L1462.25,620.889 L1506.68,551.578 L1618.64,535.584 L1629.3,562.242 L1679.06,695.53 L1686.17,736.406 L1679.06,770.172 L1666.62,811.047 L1469.36,841.259" fill-rule="evenodd" vector-effect="none"/>
   <path d="M1666.62,811.047 L1469.36,841.259 L1462.25,784.389 L1462.25,620.889 L1490.68,507.149 L1547.55,487.6 L1618.64,535.584 L1629.3,562.242 L1679.06,695.53 L1686.17,736.406 L1679.06,770.172 L1666.62,811.047" fill-rule="evenodd" vector-effect="none"/>
   <path d="M1679.06,695.53 L1686.17,736.406 L1679.06,770.172 L1666.62,811.047 L1504.9,803.939 L1462.25,620.889 L1506.68,551.578 L1618.64,535.584 L1629.3,562.242 L1679.06,695.53" fill-rule="evenodd" vector-effect="none"/>
   <path d="M1666.62,811.047 L1504.9,803.939 L1496.01,723.965 L1492.46,619.111 L1515.56,596.008 L1570.66,556.91 L1618.64,535.584 L1629.3,562.242 L1679.06,695.53 L1686.17,736.406 L1679.06,770.172 L1666.62,811.047" fill-rule="evenodd" vector-effect="none"/>
   <path d="M1686.17,736.406 L1679.06,770.172 L1666.62,811.047 L1504.9,803.939 L1496.01,723.965 L1496.01,723.965 L1565.32,562.242 L1570.66,556.91 L1618.64,535.584 L1629.3,562.242 L1679.06,695.53 L1686.17,736.406" fill-rule="evenodd" vector-effect="none"/>
   <path d="M1679.06,770.172 L1666.62,811.047 L1504.9,803.939 L1462.25,784.389 L1496.01,723.965 L1584.87,580.013 L1629.3,562.242 L1679.06,695.53 L1686.17,736.406 L1679.06,770.172" fill-rule="evenodd" vector-effect="none"/>
   <path d="M1666.62,811.047 L1469.36,841.259 L1462.25,784.389 L1496.01,723.965 L1572.43,629.775 L1661.29,675.981 L1679.06,695.53 L1686.17,736.406 L1679.06,770.172 L1666.62,811.047" fill-rule="evenodd" vector-effect="none"/>
   <path d="M1469.36,841.259 L1462.25,784.389 L1462.25,620.889 L1506.68,551.578 L1618.64,535.584 L1629.3,562.242 L1679.06,695.53 L1686.17,736.406 L1679.06,770.172 L1666.62,811.047 L1469.36,841.259" fill-rule="evenodd" vector-effect="none"/>
   <path d="M1469.36,841.259 L1462.25,784.389 L1375.17,615.557 L1515.56,596.008 L1572.43,629.775 L1583.1,704.416 L1504.9,803.939 L1469.36,841.259" fill-rule="evenodd" vector-effect="none"/>
   <path d="M1504.9,803.939 L1469.36,841.259 L1462.25,784.389 L1462.25,620.889 L1515.56,596.008 L1572.43,629.775 L1583.1,704.416 L1504.9,803.939" fill-rule="evenodd" vector-effect="none"/>
   <path d="M1504.9,803.939 L1469.36,841.259 L1462.25,784.389 L1496.01,723.965 L1536.89,679.536 L1583.1,704.416 L1504.9,803.939" fill-rule="evenodd" vector-effect="none"/>
   <path d="M1469.36,841.259 L1462.25,784.389 L1375.17,615.557 L1515.56,596.008 L1572.43,629.775 L1583.1,704.416 L1504.9,803.939 L1469.36,841.259" fill-rule="evenodd" vector-effect="none"/>
   <path d="M1583.1,704.416 L1522.67,750.623 L1375.17,615.557 L1506.68,551.578 L1570.66,556.91 L1629.3,562.242 L1583.1,704.416" fill-rule="evenodd" vector-effect="none"/>
   <path d="M1583.1,704.416 L1522.67,750.623 L1375.17,615.557 L1490.68,507.149 L1629.3,562.242 L1583.1,704.416" fill-rule="evenodd" vector-effect="none"/>
   <path d="M1583.1,704.416 L1522.67,750.623 L1375.17,615.557 L1517.34,468.051 L1547.55,487.6 L1618.64,535.584 L1629.3,562.242 L1583.1,704.416" fill-rule="evenodd" vector-effect="none"/>
   <path d="M1583.1,704.416 L1522.67,750.623 L1496.01,723.965 L1462.25,620.889 L1490.68,507.149 L1618.64,535.584 L1629.3,562.242 L1583.1,704.416" fill-rule="evenodd" vector-effect="none"/>
   <path d="M1583.1,704.416 L1522.67,750.623 L1375.17,615.557 L1506.68,551.578 L1570.66,556.91 L1629.3,562.242 L1583.1,704.416" fill-rule="evenodd" vector-effect="none"/>
   <path d="M1618.64,535.584 L1629.3,562.242 L1572.43,629.775 L1375.17,615.557 L1339.62,521.366 L1382.27,382.746 L1437.37,372.083 L1536.89,437.839 L1618.64,535.584" fill-rule="evenodd" vector-effect="none"/>
   <path d="M1629.3,562.242 L1572.43,629.775 L1375.17,615.557 L1407.16,471.605 L1480.02,407.627 L1536.89,437.839 L1618.64,535.584 L1629.3,562.242" fill-rule="evenodd" vector-effect="none"/>
   <path d="M1572.43,629.775 L1375.17,615.557 L1407.16,471.605 L1480.02,407.627 L1536.89,437.839 L1618.64,535.584 L1629.3,562.242 L1572.43,629.775" fill-rule="evenodd" vector-effect="none"/>
   <path d="M1629.3,562.242 L1572.43,629.775 L1375.17,615.557 L1407.16,471.605 L1480.02,407.627 L1536.89,437.839 L1618.64,535.584 L1629.3,562.242" fill-rule="evenodd" vector-effect="none"/>
   <path d="M1572.43,629.775 L1462.25,620.889 L1480.02,407.627 L1536.89,437.839 L1618.64,535.584 L1629.3,562.242 L1572.43,629.775" fill-rule="evenodd" vector-effect="none"/>
   <path d="M1629.3,562.242 L1572.43,629.775 L1462.25,620.889 L1480.02,407.627 L1536.89,437.839 L1618.64,535.584 L1629.3,562.242" fill-rule="evenodd" vector-effect="none"/>
   <path d="M1572.43,629.775 L1462.25,620.889 L1480.02,434.284 L1536.89,437.839 L1618.64,535.584 L1629.3,562.242 L1572.43,629.775" fill-rule="evenodd" vector-effect="none"/>
   <path d="M1572.43,629.775 L1375.17,615.557 L1480.02,434.284 L1536.89,437.839 L1618.64,535.584 L1629.3,562.242 L1572.43,629.775" fill-rule="evenodd" vector-effect="none"/>
   <path d="M1618.64,535.584 L1629.3,562.242 L1572.43,629.775 L1375.17,615.557 L1339.62,521.366 L1382.27,382.746 L1437.37,372.083 L1536.89,437.839 L1618.64,535.584" fill-rule="evenodd" vector-effect="none"/>
   <path d="M1515.56,596.008 L1492.46,619.111 L1462.25,620.889 L1375.17,615.557 L1335.53,518.676 L1204.56,432.507 L1186.78,389.855 L1229.44,361.42 L1437.37,372.083 L1536.89,437.839 L1515.56,596.008" fill-rule="evenodd" vector-effect="none"/>
   <path d="M1462.25,620.889 L1339.62,521.366 L1382.27,382.746 L1437.37,372.083 L1536.89,437.839 L1515.56,596.008 L1492.46,619.111 L1462.25,620.889" fill-rule="evenodd" vector-effect="none"/>
   <path d="M1492.46,619.111 L1462.25,620.889 L1375.17,615.557 L1339.62,521.366 L1382.27,382.746 L1437.37,372.083 L1536.89,437.839 L1515.56,596.008 L1492.46,619.111" fill-rule="evenodd" vector-effect="none"/>
   <path d="M1515.56,596.008 L1492.46,619.111 L1462.25,620.889 L1375.17,615.557 L1295.19,420.067 L1382.27,382.746 L1437.37,372.083 L1536.89,437.839 L1515.56,596.008" fill-rule="evenodd" vector-effect="none"/>
   <path d="M1515.56,596.008 L1492.46,619.111 L1462.25,620.889 L1375.17,615.557 L1339.62,521.366 L1382.27,382.746 L1437.37,372.083 L1536.89,437.839 L1515.56,596.008" fill-rule="evenodd" vector-effect="none"/>
   <path d="M1515.56,596.008 L1492.46,619.111 L1462.25,620.889 L1375.17,615.557 L1339.62,521.366 L1380.5,432.507 L1480.02,407.627 L1536.89,437.839 L1515.56,596.008" fill-rule="evenodd" vector-effect="none"/>
   <path d="M1492.46,619.111 L1462.25,620.889 L1375.17,615.557 L1339.62,521.366 L1380.5,432.507 L1480.02,407.627 L1536.89,437.839 L1515.56,596.008 L1492.46,619.111" fill-rule="evenodd" vector-effect="none"/>
   <path d="M1492.46,619.111 L1462.25,620.889 L1375.17,615.557 L1339.62,521.366 L1380.5,432.507 L1480.02,407.627 L1536.89,437.839 L1515.56,596.008 L1492.46,619.111" fill-rule="evenodd" vector-effect="none"/>
   <path d="M1462.25,620.889 L1375.17,615.557 L1295.19,420.067 L1480.02,434.284 L1517.34,468.051 L1515.56,596.008 L1492.46,619.111 L1462.25,620.889" fill-rule="evenodd" vector-effect="none"/>
   <path d="M1515.56,596.008 L1492.46,619.111 L1462.25,620.889 L1375.17,615.557 L1335.53,518.676 L1204.56,432.507 L1186.78,389.855 L1229.44,361.42 L1437.37,372.083 L1536.89,437.839 L1515.56,596.008" fill-rule="evenodd" vector-effect="none"/>
   <path d="M1480.02,434.284 L1407.16,471.605 L1364.5,475.16 L1204.56,432.507 L1105.03,404.072 L1101.48,370.306 L1190.34,359.643 L1229.44,361.42 L1437.37,372.083 L1480.02,407.627 L1480.02,434.284" fill-rule="evenodd" vector-effect="none"/>
   <path d="M1364.5,475.16 L1204.56,432.507 L1186.78,389.855 L1190.34,359.643 L1229.44,361.42 L1437.37,372.083 L1480.02,407.627 L1480.02,434.284 L1407.16,471.605 L1364.5,475.16" fill-rule="evenodd" vector-effect="none"/>
   <path d="M1480.02,434.284 L1407.16,471.605 L1364.5,475.16 L1204.56,432.507 L1186.78,389.855 L1190.34,359.643 L1229.44,361.42 L1437.37,372.083 L1480.02,407.627 L1480.02,434.284" fill-rule="evenodd" vector-effect="none"/>
   <path d="M1364.5,475.16 L1247.21,389.855 L1229.44,361.42 L1437.37,372.083 L1480.02,407.627 L1480.02,434.284 L1407.16,471.605 L1364.5,475.16" fill-rule="evenodd" vector-effect="none"/>
   <path d="M1480.02,407.627 L1480.02,434.284 L1407.16,471.605 L1364.5,475.16 L1295.19,420.067 L1382.27,382.746 L1437.37,372.083 L1480.02,407.627" fill-rule="evenodd" vector-effect="none"/>
   <path d="M1480.02,434.284 L1407.16,471.605 L1364.5,475.16 L1295.19,420.067 L1382.27,382.746 L1437.37,372.083 L1480.02,407.627 L1480.02,434.284" fill-rule="evenodd" vector-effect="none"/>
   <path d="M1407.16,471.605 L1364.5,475.16 L1204.56,432.507 L1229.44,361.42 L1437.37,372.083 L1480.02,407.627 L1480.02,434.284 L1407.16,471.605" fill-rule="evenodd" vector-effect="none"/>
   <path d="M1407.16,471.605 L1364.5,475.16 L1204.56,432.507 L1186.78,389.855 L1190.34,359.643 L1229.44,361.42 L1437.37,372.083 L1480.02,407.627 L1480.02,434.284 L1407.16,471.605" fill-rule="evenodd" vector-effect="none"/>
   <path d="M1480.02,434.284 L1407.16,471.605 L1364.5,475.16 L1204.56,432.507 L1105.03,404.072 L1101.48,370.306 L1190.34,359.643 L1229.44,361.42 L1437.37,372.083 L1480.02,407.627 L1480.02,434.284" fill-rule="evenodd" vector-effect="none"/>
   <path d="M1112.47,426.264 L1001.96,571.127 L969.968,535.584 L929.093,420.067 L987.74,384.523 L1073.04,354.311 L1190.34,359.643 L1229.44,361.42 L1247.21,389.855 L1204.56,432.507 L1112.47,426.264" fill-rule="evenodd" vector-effect="none"/>
   <path d="M1247.21,389.855 L1204.56,432.507 L1049.82,422.017 L973.522,428.953 L987.74,384.523 L1073.04,354.311 L1190.34,359.643 L1229.44,361.42 L1247.21,389.855" fill-rule="evenodd" vector-effect="none"/>
   <path d="M1247.21,389.855 L1204.56,432.507 L994.848,418.29 L987.74,384.523 L1073.04,354.311 L1190.34,359.643 L1229.44,361.42 L1247.21,389.855" fill-rule="evenodd" vector-effect="none"/>
   <path d="M1190.34,359.643 L1229.44,361.42 L1247.21,389.855 L1204.56,432.507 L1071.27,420.067 L1016.17,377.414 L1073.04,354.311 L1190.34,359.643" fill-rule="evenodd" vector-effect="none"/>
   <path d="M1247.21,389.855 L1204.56,432.507 L1071.27,420.067 L1048.16,395.186 L1046.39,379.192 L1073.04,354.311 L1190.34,359.643 L1229.44,361.42 L1247.21,389.855" fill-rule="evenodd" vector-effect="none"/>
   <path d="M1204.56,432.507 L1071.27,420.067 L1010.84,402.295 L1016.17,377.414 L1073.04,354.311 L1190.34,359.643 L1229.44,361.42 L1247.21,389.855 L1204.56,432.507 M1071.27,420.067 L1112.39,418.132 L1112.39,418.132 L1071.27,420.067" fill-rule="evenodd" vector-effect="none"/>
   <path d="M1204.56,432.507 L994.848,418.29 L1016.17,377.414 L1073.04,354.311 L1190.34,359.643 L1229.44,361.42 L1247.21,389.855 L1204.56,432.507" fill-rule="evenodd" vector-effect="none"/>
   <path d="M1112.47,426.264 L1001.96,571.127 L969.968,535.584 L929.093,420.067 L987.74,384.523 L1073.04,354.311 L1190.34,359.643 L1229.44,361.42 L1247.21,389.855 L1204.56,432.507 L1112.47,426.264" fill-rule="evenodd" vector-effect="none"/>
   <path d="M1028.61,592.454 L918.43,555.133 L858.005,434.284 L856.228,407.627 L987.466,382.837 L1073.04,354.311 L1101.48,370.306 L1105.03,404.072 L1028.61,592.454" fill-rule="evenodd" vector-effect="none"/>
   <path d="M1028.61,592.454 L918.43,555.133 L858.005,434.284 L856.228,407.627 L987.466,382.837 L1073.04,354.311 L1101.48,370.306 L1105.03,404.072 L1028.61,592.454" fill-rule="evenodd" vector-effect="none"/>
   <path d="M1073.04,354.311 L1101.48,370.306 L1105.03,404.072 L969.968,535.584 L932.647,516.035 L895.326,434.284 L902.435,411.181 L1073.04,354.311" fill-rule="evenodd" vector-effect="none"/>
   <path d="M1073.04,354.311 L1101.48,370.306 L1105.03,404.072 L969.968,535.584 L929.093,480.491 L895.326,434.284 L902.435,411.181 L1073.04,354.311" fill-rule="evenodd" vector-effect="none"/>
   <path d="M1105.03,404.072 L1028.61,592.454 L971.745,555.133 L932.647,516.035 L895.326,434.284 L902.435,411.181 L1073.04,354.311 L1101.48,370.306 L1105.03,404.072" fill-rule="evenodd" vector-effect="none"/>
   <path d="M1105.03,404.072 L1028.61,592.454 L1009.07,620.889 L943.31,590.676 L918.43,555.133 L858.005,434.284 L856.228,407.627 L987.466,382.837 L1073.04,354.311 L1101.48,370.306 L1105.03,404.072" fill-rule="evenodd" vector-effect="none"/>
   <path d="M1028.61,592.454 L918.43,555.133 L858.005,434.284 L856.228,407.627 L987.466,382.837 L1073.04,354.311 L1101.48,370.306 L1105.03,404.072 L1028.61,592.454" fill-rule="evenodd" vector-effect="none"/>
   <path d="M1001.96,571.127 L943.31,590.676 L846.202,518.362 L827.134,518.697 L747.82,564.019 L685.619,505.372 L660.738,409.404 L696.282,404.072 L856.228,407.627 L1016.17,377.414 L1001.96,571.127" fill-rule="evenodd" vector-effect="none"/>
   <path d="M821.342,522.006 L847.342,645.769 L664.292,594.231 L632.303,443.17 L660.738,409.404 L696.282,404.072 L856.228,407.627 L987.74,384.523 L1010.84,402.295 L971.745,555.133 L943.31,590.676 L846.202,518.362 L827.134,518.697 L821.342,522.006" fill-rule="evenodd" vector-effect="none"/>
   <path d="M971.745,555.133 L943.31,590.676 L846.202,518.362 L827.134,518.697 L818.236,523.781 L818.907,588.899 L658.961,553.356 L632.303,443.17 L660.738,409.404 L696.282,404.072 L856.228,407.627 L1016.17,377.414 L1010.84,402.295 L971.745,555.133" fill-rule="evenodd" vector-effect="none"/>
   <path d="M971.745,555.133 L943.31,590.676 L846.202,518.362 L827.134,518.697 L818.236,523.781 L818.907,588.899 L658.961,553.356 L632.303,443.17 L660.738,409.404 L696.282,404.072 L856.228,407.627 L1016.17,377.414 L1010.84,402.295 L971.745,555.133" fill-rule="evenodd" vector-effect="none"/>
   <path d="M971.745,555.133 L943.31,590.676 L846.202,518.362 L827.134,518.697 L747.82,564.019 L685.619,505.372 L660.738,409.404 L696.282,404.072 L856.228,407.627 L1016.17,377.414 L1010.84,402.295 L971.745,555.133" fill-rule="evenodd" vector-effect="none"/>
   <path d="M943.31,590.676 L846.202,518.362 L827.134,518.697 L747.82,564.019 L738.934,540.915 L696.282,404.072 L856.228,407.627 L1016.17,377.414 L1001.96,571.127 L943.31,590.676" fill-rule="evenodd" vector-effect="none"/>
   <path d="M1028.61,592.454 L1009.07,620.889 L968.191,626.22 L943.31,590.676 L846.202,518.362 L776.255,519.589 L760.26,414.735 L856.228,407.627 L1016.17,377.414 L1028.61,592.454" fill-rule="evenodd" vector-effect="none"/>
   <path d="M1028.61,592.454 L1009.07,620.889 L968.191,626.22 L943.31,590.676 L846.202,518.362 L776.255,519.589 L760.26,414.735 L856.228,407.627 L1016.17,377.414 L1028.61,592.454" fill-rule="evenodd" vector-effect="none"/>
   <path d="M1016.17,377.414 L1028.61,592.454 L943.31,590.676 L849.712,486.415 L786.918,423.621 L817.13,416.512 L856.228,407.627 L1016.17,377.414" fill-rule="evenodd" vector-effect="none"/>
   <path d="M1016.17,377.414 L1028.61,592.454 L918.43,555.133 L811.799,421.844 L817.13,416.512 L856.228,407.627 L1016.17,377.414" fill-rule="evenodd" vector-effect="none"/>
   <path d="M1028.61,592.454 L1009.07,620.889 L943.31,590.676 L802.913,434.284 L811.799,421.844 L817.13,416.512 L856.228,407.627 L1016.17,377.414 L1028.61,592.454" fill-rule="evenodd" vector-effect="none"/>
   <path d="M1028.61,592.454 L1009.07,620.889 L968.191,626.22 L943.31,590.676 L849.712,486.415 L786.918,423.621 L817.13,416.512 L856.228,407.627 L1016.17,377.414 L1028.61,592.454 M817.13,416.512 L817.698,416.518 L817.698,416.518 L817.13,416.512" fill-rule="evenodd" vector-effect="none"/>
   <path d="M1028.61,592.454 L1009.07,620.889 L968.191,626.22 L943.31,590.676 L846.202,518.362 L776.255,519.589 L760.26,414.735 L856.228,407.627 L1016.17,377.414 L1028.61,592.454" fill-rule="evenodd" vector-effect="none"/>
   <path d="M968.191,626.22 L943.31,590.676 L846.202,518.362 L776.255,519.589 L760.26,414.735 L856.228,407.627 L1016.17,377.414 L1028.61,592.454 L1009.07,620.889 L968.191,626.22" fill-rule="evenodd" vector-effect="none"/>
   <path d="M1009.07,620.889 L968.191,626.22 L943.31,590.676 L846.202,518.362 L827.134,518.697 L747.82,564.019 L738.934,540.915 L696.282,404.072 L856.228,407.627 L1016.17,377.414 L1028.61,592.454 L1009.07,620.889" fill-rule="evenodd" vector-effect="none"/>
   <path d="M1001.96,571.127 L943.31,590.676 L846.202,518.362 L827.134,518.697 L747.82,564.019 L685.619,505.372 L660.738,409.404 L696.282,404.072 L856.228,407.627 L1016.17,377.414 L1001.96,571.127" fill-rule="evenodd" vector-effect="none"/>
   <path d="M1033.95,649.324 L987.74,652.878 L968.191,626.22 L943.31,590.676 L846.202,518.362 L827.134,518.697 L747.82,564.019 L738.934,540.915 L760.26,414.735 L973.522,443.17 L1028.61,592.454 L1033.95,649.324" fill-rule="evenodd" vector-effect="none"/>
   <path d="M1033.95,649.324 L987.74,652.878 L968.191,626.22 L943.31,590.676 L846.202,518.362 L776.255,519.589 L760.26,414.735 L973.522,443.17 L1028.61,592.454 L1033.95,649.324" fill-rule="evenodd" vector-effect="none"/>
   <path d="M1033.95,649.324 L987.74,652.878 L968.191,626.22 L943.31,590.676 L846.202,518.362 L776.255,519.589 L760.26,414.735 L973.522,443.17 L1028.61,592.454 L1033.95,649.324" fill-rule="evenodd" vector-effect="none"/>
   <path d="M1028.61,592.454 L1033.95,649.324 L1001.96,679.536 L941.279,589.164 L846.202,518.362 L776.255,519.589 L760.26,414.735 L973.522,443.17 L1028.61,592.454" fill-rule="evenodd" vector-effect="none"/>
   <path d="M1028.61,592.454 L1060.6,684.867 L1001.96,679.536 L941.279,589.164 L846.202,518.362 L776.255,519.589 L776.255,466.274 L786.918,423.621 L973.522,443.17 L1028.61,592.454" fill-rule="evenodd" vector-effect="none"/>
   <path d="M1060.6,684.867 L1049.94,736.406 L969.968,741.737 L924.346,576.554 L776.255,466.274 L786.918,423.621 L973.522,443.17 L1028.61,592.454 L1060.6,684.867" fill-rule="evenodd" vector-effect="none"/>
   <path d="M1049.94,736.406 L969.968,741.737 L924.346,576.554 L776.255,466.274 L973.522,443.17 L1028.61,592.454 L1060.6,684.867 L1049.94,736.406" fill-rule="evenodd" vector-effect="none"/>
   <path d="M1028.61,592.454 L1060.6,684.867 L1049.94,736.406 L1030.39,771.949 L994.848,782.612 L969.968,741.737 L918.43,555.133 L921.984,464.496 L973.522,443.17 L1028.61,592.454" fill-rule="evenodd" vector-effect="none"/>
   <path d="M1028.61,592.454 L1060.6,684.867 L1049.94,736.406 L1030.39,771.949 L994.848,782.612 L941.533,791.498 L942.842,643.524 L918.43,555.133 L921.984,464.496 L973.522,443.17 L1028.61,592.454" fill-rule="evenodd" vector-effect="none"/>
   <path d="M1030.39,771.949 L994.848,782.612 L941.533,791.498 L891.772,777.281 L942.254,709.971 L942.842,643.524 L918.43,555.133 L921.984,464.496 L973.522,443.17 L1028.61,592.454 L1060.6,684.867 L1049.94,736.406 L1030.39,771.949" fill-rule="evenodd" vector-effect="none"/>
   <path d="M1049.94,736.406 L1030.39,771.949 L964.636,843.037 L941.533,791.498 L942.842,643.524 L918.43,555.133 L921.984,464.496 L973.522,443.17 L1028.61,592.454 L1060.6,684.867 L1049.94,736.406" fill-rule="evenodd" vector-effect="none"/>
   <path d="M994.848,782.612 L941.533,791.498 L942.842,643.524 L924.346,576.554 L776.255,466.274 L973.522,443.17 L1028.61,592.454 L1060.6,684.867 L1049.94,736.406 L1030.39,771.949 L994.848,782.612" fill-rule="evenodd" vector-effect="none"/>
   <path d="M969.968,741.737 L924.346,576.554 L776.255,466.274 L760.26,414.735 L973.522,443.17 L1028.61,592.454 L1060.6,684.867 L969.968,741.737" fill-rule="evenodd" vector-effect="none"/>
   <path d="M1060.6,684.867 L1001.96,679.536 L941.279,589.164 L846.202,518.362 L776.255,519.589 L760.26,414.735 L973.522,443.17 L1028.61,592.454 L1060.6,684.867" fill-rule="evenodd" vector-effect="none"/>
   <path d="M1028.61,592.454 L1033.95,649.324 L1001.96,679.536 L941.279,589.164 L846.202,518.362 L807.79,519.036 L738.934,540.915 L760.26,414.735 L973.522,443.17 L1028.61,592.454" fill-rule="evenodd" vector-effect="none"/>
   <path d="M1033.95,649.324 L987.74,652.878 L968.191,626.22 L943.31,590.676 L846.202,518.362 L827.134,518.697 L747.82,564.019 L738.934,540.915 L760.26,414.735 L973.522,443.17 L1028.61,592.454 L1033.95,649.324" fill-rule="evenodd" vector-effect="none"/>
   <path d="M1030.39,771.949 L964.636,843.037 L881.109,823.488 L891.772,777.281 L987.74,652.878 L1033.95,649.324 L1060.6,684.867 L1049.94,736.406 L1030.39,771.949 M1060.6,684.867 L1038.71,675.255 L1038.71,675.255 L1060.6,684.867" fill-rule="evenodd" vector-effect="none"/>
   <path d="M987.74,652.878 L1033.95,649.324 L1060.6,684.867 L1049.94,736.406 L1030.39,771.949 L964.636,843.037 L891.772,777.281 L987.74,652.878" fill-rule="evenodd" vector-effect="none"/>
   <path d="M1060.6,684.867 L1049.94,736.406 L1030.39,771.949 L964.636,843.037 L891.772,777.281 L987.74,652.878 L1033.95,649.324 L1060.6,684.867" fill-rule="evenodd" vector-effect="none"/>
   <path d="M1049.94,736.406 L989.517,892.798 L930.87,907.015 L902.435,873.249 L881.109,823.488 L891.772,777.281 L987.74,652.878 L1033.95,649.324 L1060.6,684.867 L1049.94,736.406" fill-rule="evenodd" vector-effect="none"/>
   <path d="M989.517,892.798 L930.87,907.015 L879.332,917.678 L838.456,864.363 L891.772,777.281 L987.74,652.878 L1033.95,649.324 L1060.6,684.867 L1049.94,736.406 L989.517,892.798" fill-rule="evenodd" vector-effect="none"/>
   <path d="M1049.94,736.406 L989.517,892.798 L930.87,907.015 L879.332,917.678 L838.456,864.363 L891.772,777.281 L987.74,652.878 L1033.95,649.324 L1060.6,684.867 L1049.94,736.406" fill-rule="evenodd" vector-effect="none"/>
   <path d="M1049.94,736.406 L989.517,892.798 L930.87,907.015 L879.332,917.678 L838.456,864.363 L891.772,777.281 L987.74,652.878 L1033.95,649.324 L1060.6,684.867 L1049.94,736.406" fill-rule="evenodd" vector-effect="none"/>
   <path d="M989.517,892.798 L902.435,873.249 L881.109,823.488 L891.772,777.281 L987.74,652.878 L1033.95,649.324 L1060.6,684.867 L1049.94,736.406 L989.517,892.798" fill-rule="evenodd" vector-effect="none"/>
   <path d="M1030.39,771.949 L964.636,843.037 L881.109,823.488 L891.772,777.281 L987.74,652.878 L1033.95,649.324 L1060.6,684.867 L1049.94,736.406 L1030.39,771.949 M1060.6,684.867 L1038.71,675.255 L1038.71,675.255 L1060.6,684.867" fill-rule="evenodd" vector-effect="none"/>
   <path d="M879.332,917.678 L838.456,864.363 L891.772,777.281 L941.533,791.498 L989.517,892.798 L930.87,907.015 L879.332,917.678" fill-rule="evenodd" vector-effect="none"/>
   <path d="M989.517,892.798 L930.87,907.015 L879.332,917.678 L838.456,864.363 L891.772,777.281 L941.533,791.498 L989.517,892.798" fill-rule="evenodd" vector-effect="none"/>
   <path d="M879.332,917.678 L838.456,864.363 L891.772,777.281 L941.533,791.498 L989.517,892.798 L930.87,907.015 L879.332,917.678" fill-rule="evenodd" vector-effect="none"/>
   <path d="M879.332,917.678 L838.456,864.363 L891.772,777.281 L941.533,791.498 L989.517,892.798 L930.87,907.015 L879.332,917.678" fill-rule="evenodd" vector-effect="none"/>
   <path d="M930.87,907.015 L879.332,917.678 L838.456,864.363 L891.772,777.281 L941.533,791.498 L989.517,892.798 L930.87,907.015" fill-rule="evenodd" vector-effect="none"/>
   <path d="M989.517,892.798 L930.87,907.015 L879.332,917.678 L838.456,864.363 L891.772,777.281 L941.533,791.498 L989.517,892.798" fill-rule="evenodd" vector-effect="none"/>
   <path d="M989.517,892.798 L930.87,907.015 L879.332,917.678 L838.456,864.363 L891.772,777.281 L941.533,791.498 L989.517,892.798" fill-rule="evenodd" vector-effect="none"/>
   <path d="M989.517,892.798 L930.87,907.015 L879.332,917.678 L838.456,864.363 L891.772,777.281 L941.533,791.498 L989.517,892.798" fill-rule="evenodd" vector-effect="none"/>
   <path d="M989.517,892.798 L930.87,907.015 L879.332,917.678 L838.456,864.363 L891.772,777.281 L941.533,791.498 L989.517,892.798" fill-rule="evenodd" vector-effect="none"/>
   <path d="M879.332,917.678 L838.456,864.363 L891.772,777.281 L941.533,791.498 L989.517,892.798 L930.87,907.015 L879.332,917.678" fill-rule="evenodd" vector-effect="none"/>
   <path d="M792.25,693.753 L730.048,716.857 L673.178,700.862 L603.943,552.5 L497.237,478.714 L573.656,441.393 L660.738,409.404 L696.282,404.072 L760.26,414.735 L786.918,423.621 L813.256,559.702 L847.342,645.769 L792.25,693.753" fill-rule="evenodd" vector-effect="none"/>
   <path d="M792.25,693.753 L730.048,716.857 L673.178,700.862 L586.096,514.258 L573.656,441.393 L660.738,409.404 L696.282,404.072 L760.26,414.735 L786.918,423.621 L813.256,559.702 L847.342,645.769 L792.25,693.753" fill-rule="evenodd" vector-effect="none"/>
   <path d="M730.048,716.857 L673.178,700.862 L658.961,553.356 L685.619,505.372 L760.26,414.735 L786.918,423.621 L813.256,559.702 L847.342,645.769 L792.25,693.753 L730.048,716.857" fill-rule="evenodd" vector-effect="none"/>
   <path d="M847.342,645.769 L792.25,693.753 L730.048,716.857 L673.178,700.862 L658.961,553.356 L685.619,505.372 L776.255,466.274 L847.342,645.769" fill-rule="evenodd" vector-effect="none"/>
   <path d="M792.25,693.753 L730.048,716.857 L673.178,700.862 L658.961,553.356 L685.619,505.372 L776.255,519.589 L818.907,588.899 L847.342,645.769 L792.25,693.753" fill-rule="evenodd" vector-effect="none"/>
   <path d="M730.048,716.857 L673.178,700.862 L658.961,553.356 L685.619,505.372 L776.255,519.589 L818.907,588.899 L847.342,645.769 L792.25,693.753 L730.048,716.857" fill-rule="evenodd" vector-effect="none"/>
   <path d="M792.25,693.753 L730.048,716.857 L673.178,700.862 L586.096,514.258 L685.619,505.372 L776.255,519.589 L818.907,588.899 L847.342,645.769 L792.25,693.753" fill-rule="evenodd" vector-effect="none"/>
   <path d="M730.048,716.857 L673.178,700.862 L586.096,514.258 L776.255,466.274 L847.342,645.769 L792.25,693.753 L730.048,716.857" fill-rule="evenodd" vector-effect="none"/>
   <path d="M792.25,693.753 L730.048,716.857 L673.178,700.862 L603.943,552.5 L497.237,478.714 L573.656,441.393 L660.738,409.404 L696.282,404.072 L760.26,414.735 L786.918,423.621 L813.256,559.702 L847.342,645.769 L792.25,693.753" fill-rule="evenodd" vector-effect="none"/>
   <path d="M738.934,540.915 L658.961,553.356 L497.237,478.714 L545.221,377.414 L760.26,414.735 L786.918,423.621 L776.255,519.589 L738.934,540.915" fill-rule="evenodd" vector-effect="none"/>
   <path d="M776.255,519.589 L738.934,540.915 L658.961,553.356 L497.237,478.714 L442.144,363.197 L493.683,340.094 L693.184,403.094 L760.26,414.735 L776.255,466.274 L776.255,519.589 M738.934,540.915 L716.043,536.923 L716.043,536.923 L738.934,540.915" fill-rule="evenodd" vector-effect="none"/>
   <path d="M685.619,505.372 L658.961,553.356 L497.237,478.714 L324.85,432.507 L371.057,375.637 L493.683,340.094 L696.282,404.072 L685.619,505.372" fill-rule="evenodd" vector-effect="none"/>
   <path d="M586.096,514.258 L497.237,478.714 L324.85,432.507 L269.758,391.632 L273.312,332.985 L424.728,360.08 L493.683,340.094 L660.738,409.404 L586.096,514.258" fill-rule="evenodd" vector-effect="none"/>
   <path d="M586.096,514.258 L497.237,478.714 L324.85,432.507 L269.758,391.632 L273.312,332.985 L424.728,360.08 L493.683,340.094 L545.221,377.414 L632.303,443.17 L586.096,514.258" fill-rule="evenodd" vector-effect="none"/>
   <path d="M493.683,340.094 L696.282,404.072 L586.096,514.258 L497.237,478.714 L324.85,432.507 L371.057,375.637 L493.683,340.094" fill-rule="evenodd" vector-effect="none"/>
   <path d="M658.961,553.356 L497.237,478.714 L371.057,375.637 L493.683,340.094 L693.184,403.094 L760.26,414.735 L658.961,553.356" fill-rule="evenodd" vector-effect="none"/>
   <path d="M776.255,519.589 L738.934,540.915 L658.961,553.356 L497.237,478.714 L371.057,375.637 L493.683,340.094 L693.184,403.094 L760.26,414.735 L786.918,423.621 L776.255,519.589" fill-rule="evenodd" vector-effect="none"/>
   <path d="M776.255,519.589 L738.934,540.915 L658.961,553.356 L497.237,478.714 L442.144,363.197 L493.683,340.094 L693.184,403.094 L760.26,414.735 L786.918,423.621 L776.255,519.589" fill-rule="evenodd" vector-effect="none"/>
   <path d="M776.255,519.589 L738.934,540.915 L658.961,553.356 L497.237,478.714 L470.579,421.844 L493.683,340.094 L693.184,403.094 L760.26,414.735 L786.918,423.621 L776.255,519.589" fill-rule="evenodd" vector-effect="none"/>
   <path d="M776.255,519.589 L738.934,540.915 L658.961,553.356 L497.237,478.714 L493.683,340.094 L693.184,403.094 L760.26,414.735 L786.918,423.621 L776.255,519.589" fill-rule="evenodd" vector-effect="none"/>
   <path d="M738.934,540.915 L658.961,553.356 L586.096,514.258 L545.221,377.414 L760.26,414.735 L786.918,423.621 L776.255,519.589 L738.934,540.915" fill-rule="evenodd" vector-effect="none"/>
   <path d="M658.961,553.356 L573.656,441.393 L660.738,409.404 L696.282,404.072 L760.26,414.735 L786.918,423.621 L776.255,519.589 L738.934,540.915 L658.961,553.356" fill-rule="evenodd" vector-effect="none"/>
   <path d="M776.255,519.589 L738.934,540.915 L658.961,553.356 L586.096,514.258 L573.656,441.393 L660.738,409.404 L696.282,404.072 L760.26,414.735 L786.918,423.621 L776.255,519.589" fill-rule="evenodd" vector-effect="none"/>
   <path d="M776.255,519.589 L738.934,540.915 L658.961,553.356 L586.096,514.258 L573.656,441.393 L660.738,409.404 L696.282,404.072 L760.26,414.735 L786.918,423.621 L776.255,519.589" fill-rule="evenodd" vector-effect="none"/>
   <path d="M776.255,519.589 L738.934,540.915 L658.961,553.356 L586.096,514.258 L573.656,441.393 L660.738,409.404 L696.282,404.072 L760.26,414.735 L786.918,423.621 L776.255,519.589" fill-rule="evenodd" vector-effect="none"/>
   <path d="M776.255,519.589 L738.934,540.915 L658.961,553.356 L497.237,478.714 L545.221,377.414 L760.26,414.735 L786.918,423.621 L776.255,519.589" fill-rule="evenodd" vector-effect="none"/>
   <path d="M738.934,540.915 L658.961,553.356 L497.237,478.714 L545.221,377.414 L760.26,414.735 L786.918,423.621 L776.255,519.589 L738.934,540.915" fill-rule="evenodd" vector-effect="none"/>
   <path d="M132.914,452.056 L74.2673,418.29 L200.447,309.881 L273.312,332.985 L269.758,391.632 L132.914,452.056" fill-rule="evenodd" vector-effect="none"/>
   <path d="M324.85,432.507 L132.914,452.056 L74.2673,418.29 L200.447,309.881 L273.312,332.985 L371.057,375.637 L324.85,432.507" fill-rule="evenodd" vector-effect="none"/>
   <path d="M273.312,332.985 L371.057,375.637 L324.85,432.507 L132.914,452.056 L74.2673,418.29 L200.447,309.881 L273.312,332.985" fill-rule="evenodd" vector-effect="none"/>
   <path d="M371.057,375.637 L324.85,432.507 L170.235,414.735 L200.447,309.881 L273.312,332.985 L371.057,375.637" fill-rule="evenodd" vector-effect="none"/>
   <path d="M371.057,375.637 L324.85,432.507 L132.914,452.056 L200.447,309.881 L273.312,332.985 L371.057,375.637" fill-rule="evenodd" vector-effect="none"/>
   <path d="M132.914,452.056 L74.2673,418.29 L200.447,309.881 L273.312,332.985 L371.057,375.637 L324.85,432.507 L132.914,452.056" fill-rule="evenodd" vector-effect="none"/>
   <path d="M324.85,432.507 L132.914,452.056 L74.2673,418.29 L200.447,309.881 L273.312,332.985 L371.057,375.637 L324.85,432.507" fill-rule="evenodd" vector-effect="none"/>
   <path d="M324.85,432.507 L132.914,452.056 L74.2673,418.29 L200.447,309.881 L273.312,332.985 L371.057,375.637 L324.85,432.507" fill-rule="evenodd" vector-effect="none"/>
   <path d="M132.914,452.056 L74.2673,418.29 L200.447,309.881 L273.312,332.985 L324.85,432.507 L132.914,452.056" fill-rule="evenodd" vector-effect="none"/>
   <path d="M132.914,452.056 L74.2673,418.29 L200.447,309.881 L273.312,332.985 L269.758,391.632 L132.914,452.056" fill-rule="evenodd" vector-effect="none"/>
   <path d="M45.8324,885.689 L29.8378,835.928 L93.8164,830.596 L92.0392,898.129 L45.8324,885.689" fill-rule="evenodd" vector-effect="none"/>
   <path d="M45.8324,885.689 L29.8378,835.928 L93.8164,830.596 L92.0392,898.129 L45.8324,885.689" fill-rule="evenodd" vector-effect="none"/>
   <path d="M29.8378,835.928 L93.8164,830.596 L92.0392,898.129 L45.8324,885.689 L29.8378,835.928" fill-rule="evenodd" vector-effect="none"/>
   <path d="M92.0392,898.129 L45.8324,885.689 L29.8378,835.928 L93.8164,830.596 L92.0392,898.129" fill-rule="evenodd" vector-effect="none"/>
   <path d="M45.8324,885.689 L29.8378,835.928 L93.8164,830.596 L92.0392,898.129 L45.8324,885.689" fill-rule="evenodd" vector-effect="none"/>
  </g>
  <g font-style="normal" fill-opacity="1" font-size="41.6667" transform="matrix(0.999873,0,0,0.999873,0,0)" font-weight="400" fill="#c43c39" font-family="Sans" stroke-width="3.07087" stroke-opacity="1" stroke="#232323" stroke-linecap="square" stroke-linejoin="bevel">
   <path d="M1675.51,912.347 L1654.18,883.912 L1702.17,880.357 L1718.16,930.119 L1675.51,912.347" fill-rule="evenodd" vector-effect="none"/>
   <path d="M1666.62,860.808 L1659.52,839.482 L1687.95,825.265 L1673.73,859.031 L1666.62,860.808" fill-rule="evenodd" vector-effect="none"/>
   <path d="M1625.75,700.862 L1629.3,748.846 L1631.08,802.161 L1600.87,780.835 L1588.43,725.742 L1611.53,675.981 L1661.29,675.981 L1679.06,695.53 L1686.17,736.406 L1679.06,770.172 L1666.62,811.047 L1625.75,700.862" fill-rule="evenodd" vector-effect="none"/>
   <path d="M1462.25,784.389 L1504.9,803.939 L1469.36,841.259 L1462.25,784.389" fill-rule="evenodd" vector-effect="none"/>
   <path d="M1522.67,750.623 L1496.01,723.965 L1536.89,679.536 L1583.1,704.416 L1522.67,750.623" fill-rule="evenodd" vector-effect="none"/>
   <path d="M1547.55,487.6 L1565.32,562.242 L1584.87,580.013 L1570.66,556.91 L1618.64,535.584 L1629.3,562.242 L1593.76,599.562 L1572.43,629.775 L1547.55,487.6" fill-rule="evenodd" vector-effect="none"/>
   <path d="M1339.62,521.366 L1536.89,437.839 L1517.34,468.051 L1490.68,507.149 L1506.68,551.578 L1515.56,596.008 L1492.46,619.111 L1462.25,620.889 L1375.17,615.557 L1339.62,521.366" fill-rule="evenodd" vector-effect="none"/>
   <path d="M1295.19,420.067 L1380.5,432.507 L1382.27,382.746 L1437.37,372.083 L1480.02,407.627 L1480.02,434.284 L1407.16,471.605 L1364.5,475.16 L1295.19,420.067" fill-rule="evenodd" vector-effect="none"/>
   <path d="M1133.47,398.741 L1186.78,389.855 L1190.34,359.643 L1229.44,361.42 L1247.21,389.855 L1222.33,412.958 L1204.56,432.507 L1133.47,398.741" fill-rule="evenodd" vector-effect="none"/>
   <path d="M1048.16,395.186 L1046.39,379.192 L1073.04,354.311 L1101.48,370.306 L1105.03,404.072 L1071.27,420.067 L1048.16,395.186" fill-rule="evenodd" vector-effect="none"/>
   <path d="M858.005,434.284 L802.913,434.284 L811.799,421.844 L817.13,416.512 L856.228,407.627 L902.435,411.181 L929.093,420.067 L955.75,409.404 L987.74,384.523 L1016.17,377.414 L1010.84,402.295 L994.848,418.29 L973.522,428.953 L937.979,430.73 L895.326,434.284 L858.005,434.284" fill-rule="evenodd" vector-effect="none"/>
   <path d="M921.984,464.496 L973.522,443.17 L964.636,460.942 L961.082,480.491 L978.854,516.035 L969.968,535.584 L971.745,555.133 L1001.96,571.127 L1028.61,592.454 L1009.07,620.889 L968.191,626.22 L943.31,590.676 L918.43,555.133 L932.647,516.035 L929.093,480.491 L921.984,464.496" fill-rule="evenodd" vector-effect="none"/>
   <path d="M987.74,652.878 L1033.95,649.324 L1060.6,684.867 L1049.94,736.406 L1030.39,771.949 L994.848,782.612 L969.968,741.737 L1001.96,679.536 L987.74,652.878" fill-rule="evenodd" vector-effect="none"/>
   <path d="M838.456,864.363 L881.109,823.488 L891.772,777.281 L941.533,791.498 L964.636,843.037 L989.517,892.798 L930.87,907.015 L879.332,917.678 L902.435,873.249 L838.456,864.363" fill-rule="evenodd" vector-effect="none"/>
   <path d="M664.292,594.231 L747.82,564.019 L818.907,588.899 L847.342,645.769 L792.25,693.753 L730.048,716.857 L673.178,700.862 L726.494,649.324 L664.292,594.231" fill-rule="evenodd" vector-effect="none"/>
   <path d="M658.961,553.356 L586.096,514.258 L497.237,478.714 L470.579,421.844 L442.144,363.197 L493.683,340.094 L545.221,377.414 L573.656,441.393 L632.303,443.17 L660.738,409.404 L696.282,404.072 L760.26,414.735 L786.918,423.621 L776.255,466.274 L776.255,519.589 L738.934,540.915 L685.619,505.372 L658.961,553.356" fill-rule="evenodd" vector-effect="none"/>
   <path d="M74.2673,418.29 L200.447,309.881 L273.312,332.985 L371.057,375.637 L324.85,432.507 L269.758,391.632 L209.333,370.306 L170.235,414.735 L132.914,452.056 L74.2673,418.29" fill-rule="evenodd" vector-effect="none"/>
   <path d="M45.8324,885.689 L29.8378,835.928 L93.8164,830.596 L92.0392,898.129 L45.8324,885.689" fill-rule="evenodd" vector-effect="none"/>
  </g>
  <g font-style="normal" fill-opacity="1" font-size="41.6667" transform="matrix(0.999873,0,0,0.999873,0,0)" font-weight="400" fill="#e5b636" font-family="Sans" stroke-width="3.07087" stroke-opacity="1" stroke="#232323" stroke-linecap="square" stroke-linejoin="bevel">
   <path d="M750.841,861.086 L874.732,661.857 L827.854,521.225 L929.98,609.957 L941.699,698.689 L739.122,918.008 L750.841,861.086" fill-rule="evenodd" vector-effect="none"/>
  </g>
  <g font-style="normal" font-size="41.6667" transform="matrix(11.8095,0,0,11.8095,0,0)" font-weight="400" fill="none" font-family="Sans" stroke-width="1" stroke-opacity="1" stroke="#000000" stroke-linecap="square" stroke-linejoin="bevel"/>
  <g font-style="normal" font-size="41.6667" transform="matrix(11.8095,0,0,11.8095,0,0)" font-weight="400" fill="none" font-family="Sans" stroke-width="1" stroke-opacity="1" stroke="#000000" stroke-linecap="square" stroke-linejoin="bevel"/>
  <g font-style="normal" font-size="41.6667" transform="matrix(11.8095,0,0,11.8095,0,0)" font-weight="400" fill="none" font-family="Sans" stroke-width="1" stroke-opacity="1" stroke="#000000" stroke-linecap="square" stroke-linejoin="bevel"/>
  <g font-style="normal" font-size="41.6667" transform="matrix(1,0,0,1,0,0)" font-weight="400" fill="none" font-family="Sans" stroke-width="1" stroke-opacity="1" stroke="#000000" stroke-linecap="square" stroke-linejoin="bevel"/>
  <g font-style="normal" font-size="41.6667" transform="matrix(11.8095,0,0,11.8095,0,0)" font-weight="400" fill="none" font-family="Sans" stroke-width="1" stroke-opacity="1" stroke="#000000" stroke-linecap="square" stroke-linejoin="bevel"/>
  <g font-style="normal" font-size="41.6667" transform="matrix(11.8095,0,0,11.8095,0,0)" font-weight="400" fill="none" font-family="Sans" stroke-width="1" stroke-opacity="1" stroke="#000000" stroke-linecap="square" stroke-linejoin="bevel"/>
  <g font-style="normal" font-size="41.6667" transform="matrix(11.8095,0,0,11.8095,86.153,934.226)" font-weight="400" fill="none" font-family="Sans" stroke-width="1" stroke-opacity="1" stroke="#000000" stroke-linecap="square" stroke-linejoin="bevel"/>
  <g font-style="normal" font-size="41.6667" transform="matrix(11.8095,0,0,11.8095,86.153,934.226)" font-weight="400" fill="none" font-family="Sans" stroke-width="1" stroke-opacity="1" stroke="#000000" stroke-linecap="square" stroke-linejoin="bevel"/>
  <g font-style="normal" fill-opacity="1" font-size="41.6667" transform="matrix(11.8095,0,0,11.8095,86.153,934.226)" font-weight="400" fill="#ffffff" font-family="Sans" stroke="none">
   <rect width="58.9141" height="24.5" y="0" x="0"/>
  </g>
  <g font-style="normal" font-size="41.6667" transform="matrix(11.8095,0,0,11.8095,86.153,934.226)" font-weight="400" fill="none" font-family="Sans" stroke-width="1" stroke-opacity="1" stroke="#000000" stroke-linecap="square" stroke-linejoin="bevel"/>
  <g font-style="normal" font-size="41.6667" transform="matrix(0.999873,0,0,0.999873,86.153,934.226)" font-weight="400" fill="none" font-family="Sans" stroke-width="1" stroke-opacity="1" stroke="#000000" stroke-linecap="square" stroke-linejoin="bevel"/>
  <g font-style="normal" font-size="41.6667" transform="matrix(11.8095,0,0,11.8095,86.153,934.226)" font-weight="400" fill="none" font-family="Sans" stroke-width="1" stroke-opacity="1" stroke="#000000" stroke-linecap="square" stroke-linejoin="bevel"/>
  <g font-style="normal" fill-opacity="1" font-size="41.6667" transform="matrix(0.999873,0,0,0.999873,109.772,999.178)" font-weight="400" fill="#c43c39" font-family="Sans" stroke-width="3.07087" stroke-opacity="1" stroke="#232323" stroke-linecap="square" stroke-linejoin="bevel">
   <path d="M0,0 L82,0 L82,47 L0,47 L0,0" fill-rule="evenodd" vector-effect="none"/>
  </g>
  <g font-style="normal" font-size="41.6667" transform="matrix(11.8095,0,0,11.8095,86.153,934.226)" font-weight="400" fill="none" font-family="Sans" stroke-width="1" stroke-opacity="1" stroke="#000000" stroke-linecap="square" stroke-linejoin="bevel"/>
  <g font-style="normal" font-size="28" transform="matrix(1.18095,0,0,1.18095,86.153,934.226)" font-weight="400" fill="none" font-family="DejaVu Sans" stroke-width="1" stroke-opacity="1" stroke="#000000" stroke-linecap="square" stroke-linejoin="bevel">
   <text font-style="normal" fill-opacity="1" font-size="28" xml:space="preserve" font-weight="400" fill="#000000" y="85.5" font-family="DejaVu Sans" x="110" stroke="none">polygons to aggregate</text>
  </g>
  <g font-style="normal" font-size="41.6667" transform="matrix(11.8095,0,0,11.8095,86.153,934.226)" font-weight="400" fill="none" font-family="Sans" stroke-width="1" stroke-opacity="1" stroke="#000000" stroke-linecap="square" stroke-linejoin="bevel"/>
  <g font-style="normal" fill-opacity="1" font-size="41.6667" transform="matrix(0.999873,0,0,0.999873,109.772,1075.94)" font-weight="400" fill="#e5b636" font-family="Sans" stroke-width="3.07087" stroke-opacity="1" stroke="#232323" stroke-linecap="square" stroke-linejoin="bevel">
   <path d="M0,0 L82,0 L82,47 L0,47 L0,0" fill-rule="evenodd" vector-effect="none"/>
  </g>
  <g font-style="normal" font-size="41.6667" transform="matrix(11.8095,0,0,11.8095,86.153,934.226)" font-weight="400" fill="none" font-family="Sans" stroke-width="1" stroke-opacity="1" stroke="#000000" stroke-linecap="square" stroke-linejoin="bevel"/>
  <g font-style="normal" font-size="28" transform="matrix(1.18095,0,0,1.18095,86.153,934.226)" font-weight="400" fill="none" font-family="DejaVu Sans" stroke-width="1" stroke-opacity="1" stroke="#000000" stroke-linecap="square" stroke-linejoin="bevel">
   <text font-style="normal" fill-opacity="1" font-size="28" xml:space="preserve" font-weight="400" fill="#000000" y="150.5" font-family="DejaVu Sans" x="110" stroke="none">barrier</text>
  </g>
  <g font-style="normal" font-size="41.6667" transform="matrix(11.8095,0,0,11.8095,86.153,934.226)" font-weight="400" fill="none" font-family="Sans" stroke-width="1" stroke-opacity="1" stroke="#000000" stroke-linecap="square" stroke-linejoin="bevel"/>
  <g font-style="normal" fill-opacity="1" font-size="41.6667" transform="matrix(0.999873,0,0,0.999873,109.772,1152.7)" font-weight="400" fill="#96ade3" font-family="Sans" stroke="none">
   <path d="M0,0 L82,0 L82,47 L0,47 L0,0" fill-rule="evenodd" vector-effect="none"/>
  </g>
  <g font-style="normal" font-size="41.6667" transform="matrix(11.8095,0,0,11.8095,86.153,934.226)" font-weight="400" fill="none" font-family="Sans" stroke-width="1" stroke-opacity="1" stroke="#000000" stroke-linecap="square" stroke-linejoin="bevel"/>
  <g font-style="normal" font-size="28" transform="matrix(1.18095,0,0,1.18095,86.153,934.226)" font-weight="400" fill="none" font-family="DejaVu Sans" stroke-width="1" stroke-opacity="1" stroke="#000000" stroke-linecap="square" stroke-linejoin="bevel">
   <text font-style="normal" fill-opacity="1" font-size="28" xml:space="preserve" font-weight="400" fill="#000000" y="215.5" font-family="DejaVu Sans" x="110" stroke="none">aggregated polygon (&lt;= 500 m)</text>
  </g>
  <g font-style="normal" font-size="41.6667" transform="matrix(11.8095,0,0,11.8095,86.153,934.226)" font-weight="400" fill="none" font-family="Sans" stroke-width="1" stroke-opacity="1" stroke="#000000" stroke-linecap="square" stroke-linejoin="bevel"/>
  <g font-style="normal" font-size="41.6667" transform="matrix(0.999873,0,0,0.999873,86.153,934.226)" font-weight="400" fill="none" font-family="Sans" stroke-width="1" stroke-opacity="1" stroke="#000000" stroke-linecap="square" stroke-linejoin="bevel"/>
  <g font-style="normal" font-size="41.6667" transform="matrix(11.8095,0,0,11.8095,86.153,934.226)" font-weight="400" fill="none" font-family="Sans" stroke-width="1" stroke-opacity="1" stroke="#000000" stroke-linecap="square" stroke-linejoin="bevel"/>
  <g font-style="normal" font-size="41.6667" transform="matrix(11.8095,0,0,11.8095,86.153,934.226)" font-weight="400" fill="none" font-family="Sans" stroke-width="1" stroke-opacity="1" stroke="#000000" stroke-linecap="square" stroke-linejoin="bevel"/>
  <g font-style="normal" font-size="41.6667" transform="matrix(11.8095,0,0,11.8095,1397.9,1083.03)" font-weight="400" fill="none" font-family="Sans" stroke-width="1" stroke-opacity="1" stroke="#000000" stroke-linecap="square" stroke-linejoin="bevel"/>
  <g font-style="normal" font-size="41.6667" transform="matrix(0.999873,0,0,0.999873,1397.9,1083.03)" font-weight="400" fill="none" font-family="Sans" stroke-width="1" stroke-opacity="1" stroke="#000000" stroke-linecap="square" stroke-linejoin="bevel"/>
  <g font-style="normal" fill-opacity="1" font-size="41.6667" stroke-miterlimit="2" transform="matrix(0.999873,0,0,0.999873,1397.9,1083.03)" font-weight="400" fill="#000000" font-family="Sans" stroke-width="3.54331" stroke-opacity="1" stroke="#000000" stroke-linecap="square" stroke-linejoin="miter">
   <rect width="109.362" height="23.622" y="74.2441" x="24.5731"/>
  </g>
  <g font-style="normal" fill-opacity="1" font-size="41.6667" stroke-miterlimit="2" transform="matrix(0.999873,0,0,0.999873,1397.9,1083.03)" font-weight="400" fill="#ffffff" font-family="Sans" stroke-width="3.54331" stroke-opacity="1" stroke="#000000" stroke-linecap="square" stroke-linejoin="miter">
   <rect width="109.362" height="23.622" y="74.2441" x="133.935"/>
  </g>
  <g font-style="normal" font-size="41.6667" transform="matrix(0.999873,0,0,0.999873,1397.9,1083.03)" font-weight="400" fill="none" font-family="Sans" stroke-width="1" stroke-opacity="1" stroke="#000000" stroke-linecap="square" stroke-linejoin="bevel"/>
  <g font-style="normal" font-size="41.6667" transform="matrix(0.319959,0,0,0.319959,1413.25,1121.83)" font-weight="400" fill="none" font-family="Sans" stroke-width="1" stroke-opacity="1" stroke="#000000" stroke-linecap="square" stroke-linejoin="bevel"/>
  <g font-style="normal" fill-opacity="1" font-size="41.6667" transform="matrix(0.999873,0,0,0.999873,1413.25,1121.83)" font-weight="400" fill="#000000" font-family="Sans" stroke="none">
   <path d="M9.21875,-19.2656 C7.75,-19.2656 6.64323,-18.5391 5.89844,-17.0859 C5.15365,-15.6328 4.78125,-13.4531 4.78125,-10.5469 C4.78125,-7.65104 5.15365,-5.47917 5.89844,-4.03125 C6.64323,-2.58333 7.75,-1.85938 9.21875,-1.85938 C10.6979,-1.85938 11.8099,-2.58333 12.5547,-4.03125 C13.2995,-5.47917 13.6719,-7.65104 13.6719,-10.5469 C13.6719,-13.4531 13.2995,-15.6328 12.5547,-17.0859 C11.8099,-18.5391 10.6979,-19.2656 9.21875,-19.2656 M9.21875,-21.5313 C11.5833,-21.5313 13.3932,-20.5938 14.6484,-18.7188 C15.9036,-16.8438 16.5313,-14.1198 16.5313,-10.5469 C16.5313,-6.99479 15.9036,-4.28125 14.6484,-2.40625 C13.3932,-0.53125 11.5833,0.40625 9.21875,0.40625 C6.85417,0.40625 5.04427,-0.53125 3.78906,-2.40625 C2.53385,-4.28125 1.90625,-6.99479 1.90625,-10.5469 C1.90625,-14.1198 2.53385,-16.8438 3.78906,-18.7188 C5.04427,-20.5938 6.85417,-21.5313 9.21875,-21.5313 " fill-rule="nonzero" vector-effect="none"/>
  </g>
  <g font-style="normal" font-size="41.6667" transform="matrix(0.319959,0,0,0.319959,1413.25,1121.83)" font-weight="400" fill="none" font-family="Sans" stroke-width="1" stroke-opacity="1" stroke="#000000" stroke-linecap="square" stroke-linejoin="bevel"/>
  <g font-style="normal" font-size="41.6667" transform="matrix(0.999873,0,0,0.999873,1397.9,1083.03)" font-weight="400" fill="none" font-family="Sans" stroke-width="1" stroke-opacity="1" stroke="#000000" stroke-linecap="square" stroke-linejoin="bevel"/>
  <g font-style="normal" font-size="41.6667" transform="matrix(0.319959,0,0,0.319959,1504.17,1121.83)" font-weight="400" fill="none" font-family="Sans" stroke-width="1" stroke-opacity="1" stroke="#000000" stroke-linecap="square" stroke-linejoin="bevel"/>
  <g font-style="normal" fill-opacity="1" font-size="41.6667" transform="matrix(0.999873,0,0,0.999873,1504.17,1121.83)" font-weight="400" fill="#000000" font-family="Sans" stroke="none">
   <path d="M5.5625,-2.40625 L15.5469,-2.40625 L15.5469,0 L2.125,0 L2.125,-2.40625 C3.20833,-3.53125 4.6875,-5.03906 6.5625,-6.92969 C8.4375,-8.82031 9.61458,-10.0417 10.0938,-10.5938 C11.0104,-11.625 11.651,-12.4974 12.0156,-13.2109 C12.3802,-13.9245 12.5625,-14.625 12.5625,-15.3125 C12.5625,-16.4375 12.1693,-17.3516 11.3828,-18.0547 C10.5964,-18.7578 9.56771,-19.1094 8.29688,-19.1094 C7.40104,-19.1094 6.45573,-18.9557 5.46094,-18.6484 C4.46615,-18.3411 3.40104,-17.8698 2.26563,-17.2344 L2.26563,-20.125 C3.42188,-20.5833 4.5,-20.9323 5.5,-21.1719 C6.5,-21.4115 7.41146,-21.5313 8.23438,-21.5313 C10.4323,-21.5313 12.1823,-20.9818 13.4844,-19.8828 C14.7865,-18.7839 15.4375,-17.3177 15.4375,-15.4844 C15.4375,-14.6198 15.2734,-13.7995 14.9453,-13.0234 C14.6172,-12.2474 14.026,-11.3281 13.1719,-10.2656 C12.9323,-9.99479 12.1797,-9.20573 10.9141,-7.89844 C9.64844,-6.59115 7.86458,-4.76042 5.5625,-2.40625 M21.5625,-21.1406 L32.7969,-21.1406 L32.7969,-18.7344 L24.1875,-18.7344 L24.1875,-13.5469 C24.6042,-13.6927 25.0208,-13.7995 25.4375,-13.8672 C25.8542,-13.9349 26.2656,-13.9688 26.6719,-13.9688 C29.0365,-13.9688 30.9089,-13.3229 32.2891,-12.0313 C33.6693,-10.7396 34.3594,-8.98958 34.3594,-6.78125 C34.3594,-4.51042 33.651,-2.74479 32.2344,-1.48438 C30.8177,-0.223958 28.8177,0.40625 26.2344,0.40625 C25.349,0.40625 24.4453,0.330729 23.5234,0.179688 C22.6016,0.0286458 21.651,-0.197917 20.6719,-0.5 L20.6719,-3.375 C21.526,-2.90625 22.4063,-2.5599 23.3125,-2.33594 C24.2188,-2.11198 25.1771,-2 26.1875,-2 C27.8229,-2 29.1172,-2.42969 30.0703,-3.28906 C31.0234,-4.14844 31.5,-5.3125 31.5,-6.78125 C31.5,-8.25 31.0234,-9.41406 30.0703,-10.2734 C29.1172,-11.1328 27.8229,-11.5625 26.1875,-11.5625 C25.4167,-11.5625 24.651,-11.4792 23.8906,-11.3125 C23.1302,-11.1458 22.3542,-10.8802 21.5625,-10.5156 L21.5625,-21.1406 M46.0938,-19.2656 C44.625,-19.2656 43.5182,-18.5391 42.7734,-17.0859 C42.0286,-15.6328 41.6563,-13.4531 41.6563,-10.5469 C41.6563,-7.65104 42.0286,-5.47917 42.7734,-4.03125 C43.5182,-2.58333 44.625,-1.85938 46.0938,-1.85938 C47.5729,-1.85938 48.6849,-2.58333 49.4297,-4.03125 C50.1745,-5.47917 50.5469,-7.65104 50.5469,-10.5469 C50.5469,-13.4531 50.1745,-15.6328 49.4297,-17.0859 C48.6849,-18.5391 47.5729,-19.2656 46.0938,-19.2656 M46.0938,-21.5313 C48.4583,-21.5313 50.2682,-20.5938 51.5234,-18.7188 C52.7786,-16.8438 53.4063,-14.1198 53.4063,-10.5469 C53.4063,-6.99479 52.7786,-4.28125 51.5234,-2.40625 C50.2682,-0.53125 48.4583,0.40625 46.0938,0.40625 C43.7292,0.40625 41.9193,-0.53125 40.6641,-2.40625 C39.4089,-4.28125 38.7813,-6.99479 38.7813,-10.5469 C38.7813,-14.1198 39.4089,-16.8438 40.6641,-18.7188 C41.9193,-20.5938 43.7292,-21.5313 46.0938,-21.5313 " fill-rule="nonzero" vector-effect="none"/>
  </g>
  <g font-style="normal" font-size="41.6667" transform="matrix(0.319959,0,0,0.319959,1504.17,1121.83)" font-weight="400" fill="none" font-family="Sans" stroke-width="1" stroke-opacity="1" stroke="#000000" stroke-linecap="square" stroke-linejoin="bevel"/>
  <g font-style="normal" font-size="41.6667" transform="matrix(0.999873,0,0,0.999873,1397.9,1083.03)" font-weight="400" fill="none" font-family="Sans" stroke-width="1" stroke-opacity="1" stroke="#000000" stroke-linecap="square" stroke-linejoin="bevel"/>
  <g font-style="normal" font-size="41.6667" transform="matrix(0.319959,0,0,0.319959,1613.51,1121.83)" font-weight="400" fill="none" font-family="Sans" stroke-width="1" stroke-opacity="1" stroke="#000000" stroke-linecap="square" stroke-linejoin="bevel"/>
  <g font-style="normal" fill-opacity="1" font-size="41.6667" transform="matrix(0.999873,0,0,0.999873,1613.51,1121.83)" font-weight="400" fill="#000000" font-family="Sans" stroke="none">
   <path d="M3.125,-21.1406 L14.3594,-21.1406 L14.3594,-18.7344 L5.75,-18.7344 L5.75,-13.5469 C6.16667,-13.6927 6.58333,-13.7995 7,-13.8672 C7.41667,-13.9349 7.82813,-13.9688 8.23438,-13.9688 C10.599,-13.9688 12.4714,-13.3229 13.8516,-12.0313 C15.2318,-10.7396 15.9219,-8.98958 15.9219,-6.78125 C15.9219,-4.51042 15.2135,-2.74479 13.7969,-1.48438 C12.3802,-0.223958 10.3802,0.40625 7.79688,0.40625 C6.91146,0.40625 6.00781,0.330729 5.08594,0.179688 C4.16406,0.0286458 3.21354,-0.197917 2.23438,-0.5 L2.23438,-3.375 C3.08854,-2.90625 3.96875,-2.5599 4.875,-2.33594 C5.78125,-2.11198 6.73958,-2 7.75,-2 C9.38542,-2 10.6797,-2.42969 11.6328,-3.28906 C12.5859,-4.14844 13.0625,-5.3125 13.0625,-6.78125 C13.0625,-8.25 12.5859,-9.41406 11.6328,-10.2734 C10.6797,-11.1328 9.38542,-11.5625 7.75,-11.5625 C6.97917,-11.5625 6.21354,-11.4792 5.45313,-11.3125 C4.69271,-11.1458 3.91667,-10.8802 3.125,-10.5156 L3.125,-21.1406 M27.6563,-19.2656 C26.1875,-19.2656 25.0807,-18.5391 24.3359,-17.0859 C23.5911,-15.6328 23.2188,-13.4531 23.2188,-10.5469 C23.2188,-7.65104 23.5911,-5.47917 24.3359,-4.03125 C25.0807,-2.58333 26.1875,-1.85938 27.6563,-1.85938 C29.1354,-1.85938 30.2474,-2.58333 30.9922,-4.03125 C31.737,-5.47917 32.1094,-7.65104 32.1094,-10.5469 C32.1094,-13.4531 31.737,-15.6328 30.9922,-17.0859 C30.2474,-18.5391 29.1354,-19.2656 27.6563,-19.2656 M27.6563,-21.5313 C30.0208,-21.5313 31.8307,-20.5938 33.0859,-18.7188 C34.3411,-16.8438 34.9688,-14.1198 34.9688,-10.5469 C34.9688,-6.99479 34.3411,-4.28125 33.0859,-2.40625 C31.8307,-0.53125 30.0208,0.40625 27.6563,0.40625 C25.2917,0.40625 23.4818,-0.53125 22.2266,-2.40625 C20.9714,-4.28125 20.3438,-6.99479 20.3438,-10.5469 C20.3438,-14.1198 20.9714,-16.8438 22.2266,-18.7188 C23.4818,-20.5938 25.2917,-21.5313 27.6563,-21.5313 M46.0938,-19.2656 C44.625,-19.2656 43.5182,-18.5391 42.7734,-17.0859 C42.0286,-15.6328 41.6563,-13.4531 41.6563,-10.5469 C41.6563,-7.65104 42.0286,-5.47917 42.7734,-4.03125 C43.5182,-2.58333 44.625,-1.85938 46.0938,-1.85938 C47.5729,-1.85938 48.6849,-2.58333 49.4297,-4.03125 C50.1745,-5.47917 50.5469,-7.65104 50.5469,-10.5469 C50.5469,-13.4531 50.1745,-15.6328 49.4297,-17.0859 C48.6849,-18.5391 47.5729,-19.2656 46.0938,-19.2656 M46.0938,-21.5313 C48.4583,-21.5313 50.2682,-20.5938 51.5234,-18.7188 C52.7786,-16.8438 53.4063,-14.1198 53.4063,-10.5469 C53.4063,-6.99479 52.7786,-4.28125 51.5234,-2.40625 C50.2682,-0.53125 48.4583,0.40625 46.0938,0.40625 C43.7292,0.40625 41.9193,-0.53125 40.6641,-2.40625 C39.4089,-4.28125 38.7813,-6.99479 38.7813,-10.5469 C38.7813,-14.1198 39.4089,-16.8438 40.6641,-18.7188 C41.9193,-20.5938 43.7292,-21.5313 46.0938,-21.5313 M79.5938,-12.8125 C80.25,-13.9896 81.0313,-14.8542 81.9375,-15.4063 C82.8438,-15.9583 83.9115,-16.2344 85.1406,-16.2344 C86.7865,-16.2344 88.0573,-15.6563 88.9531,-14.5 C89.849,-13.3438 90.2969,-11.7031 90.2969,-9.57813 L90.2969,0 L87.6875,0 L87.6875,-9.48438 C87.6875,-11.0052 87.4167,-12.1328 86.875,-12.8672 C86.3333,-13.6016 85.5104,-13.9688 84.4063,-13.9688 C83.0625,-13.9688 81.9974,-13.5208 81.2109,-12.625 C80.4245,-11.7292 80.0313,-10.5104 80.0313,-8.96875 L80.0313,0 L77.4219,0 L77.4219,-9.48438 C77.4219,-11.0156 77.151,-12.1458 76.6094,-12.875 C76.0677,-13.6042 75.2344,-13.9688 74.1094,-13.9688 C72.7865,-13.9688 71.7318,-13.5182 70.9453,-12.6172 C70.1589,-11.7161 69.7656,-10.5 69.7656,-8.96875 L69.7656,0 L67.1563,0 L67.1563,-15.8594 L69.7656,-15.8594 L69.7656,-13.3906 C70.3594,-14.3698 71.0729,-15.0885 71.9063,-15.5469 C72.7396,-16.0052 73.724,-16.2344 74.8594,-16.2344 C76.0156,-16.2344 76.9974,-15.9427 77.8047,-15.3594 C78.612,-14.776 79.2083,-13.9271 79.5938,-12.8125 " fill-rule="nonzero" vector-effect="none"/>
  </g>
  <g font-style="normal" font-size="41.6667" transform="matrix(0.319959,0,0,0.319959,1613.51,1121.83)" font-weight="400" fill="none" font-family="Sans" stroke-width="1" stroke-opacity="1" stroke="#000000" stroke-linecap="square" stroke-linejoin="bevel"/>
  <g font-style="normal" font-size="41.6667" transform="matrix(0.999873,0,0,0.999873,1397.9,1083.03)" font-weight="400" fill="none" font-family="Sans" stroke-width="1" stroke-opacity="1" stroke="#000000" stroke-linecap="square" stroke-linejoin="bevel"/>
  <g font-style="normal" font-size="41.6667" transform="matrix(0.999873,0,0,0.999873,1397.9,1083.03)" font-weight="400" fill="none" font-family="Sans" stroke-width="1" stroke-opacity="1" stroke="#000000" stroke-linecap="square" stroke-linejoin="bevel"/>
  <g font-style="normal" font-size="41.6667" transform="matrix(11.8095,0,0,11.8095,1397.9,1083.03)" font-weight="400" fill="none" font-family="Sans" stroke-width="1" stroke-opacity="1" stroke="#000000" stroke-linecap="square" stroke-linejoin="bevel"/>
  <g font-style="normal" font-size="41.6667" transform="matrix(11.8095,0,0,11.8095,1397.9,1083.03)" font-weight="400" fill="none" font-family="Sans" stroke-width="1" stroke-opacity="1" stroke="#000000" stroke-linecap="square" stroke-linejoin="bevel"/>
  <g font-style="normal" font-size="41.6667" transform="matrix(1,0,0,1,0,0)" font-weight="400" fill="none" font-family="Sans" stroke-width="1" stroke-opacity="1" stroke="#000000" stroke-linecap="square" stroke-linejoin="bevel"/>
 </g>
 <metadata id="qgismetadata">
  <rdf:RDF>
   <cc:Work>
    <dc:format>image/svg+xml</dc:format>
    <dc:title></dc:title>
    <dc:date>2019-11-06T11:20:59</dc:date>
    <dc:identifier></dc:identifier>
    <dc:description></dc:description>
    <dc:creator>
     <cc:Agent>
      <dc:title>Friedrich Viedt</dc:title>
     </cc:Agent>
    </dc:creator>
    <dc:publisher>
     <cc:Agent>
      <dc:title>QGIS 3.8.3-Zanzibar</dc:title>
     </cc:Agent>
    </dc:publisher>
    <dc:subject>
     <rdf:Bag/>
    </dc:subject>
   </cc:Work>
  </rdf:RDF>
 </metadata>
</svg>
